<?xml version="1.0" encoding="UTF-8" standalone="no"?>
<!DOCTYPE svg PUBLIC "-//W3C//DTD SVG 1.1//EN" "http://www.w3.org/Graphics/SVG/1.1/DTD/svg11.dtd">
<svg width="100%" height="100%" viewBox="0 0 318 367" version="1.1" xmlns="http://www.w3.org/2000/svg" xmlns:xlink="http://www.w3.org/1999/xlink" xml:space="preserve" xmlns:serif="http://www.serif.com/" style="fill-rule:evenodd;clip-rule:evenodd;stroke-linejoin:round;stroke-miterlimit:2;">
    <g id="c">
        <g>
            <path d="M59.46,263.18L59.46,274.62L69.37,280.34L69.37,268.9L59.46,263.18Z" style="fill:white;fill-rule:nonzero;"/>
            <path d="M49.55,257.46L49.55,268.9L59.46,274.62L59.46,263.18L49.55,257.46Z" style="fill:white;fill-rule:nonzero;"/>
            <path d="M118.61,274.44L128.52,280.16L128.52,268.72L118.61,263L118.61,274.44Z" style="fill:white;fill-rule:nonzero;"/>
            <path d="M89.19,280.34L89.19,291.78L99.1,297.5L99.1,286.06L89.19,280.34Z" style="fill:white;fill-rule:nonzero;"/>
            <path d="M118.92,286.06L128.52,291.6L128.52,280.16L118.92,274.62L118.92,286.06Z" style="fill:white;fill-rule:nonzero;"/>
            <path d="M118.61,263L128.52,268.72L128.52,257.28L118.61,251.55L118.61,263Z" style="fill:white;fill-rule:nonzero;"/>
            <path d="M39.64,228.85L29.73,223.13L29.73,234.57L39.64,240.29L39.64,228.85Z" style="fill:white;fill-rule:nonzero;"/>
            <path d="M99.1,286.06L99.1,297.5L109.01,303.22L109.01,291.78L99.1,286.06Z" style="fill:white;fill-rule:nonzero;"/>
            <path d="M59.15,171.46L59.15,160.02L49.24,154.3L49.24,165.74L59.15,171.46Z" style="fill:white;fill-rule:nonzero;"/>
            <path d="M69.06,177.18L69.06,165.74L59.15,160.02L59.15,171.46L69.06,177.18Z" style="fill:white;fill-rule:nonzero;"/>
            <path d="M98.79,194.34L98.79,182.9L88.88,177.18L88.88,188.62L98.79,194.34Z" style="fill:white;fill-rule:nonzero;"/>
            <path d="M109.01,200.24L109.01,188.8L98.79,182.9L98.79,194.34L109.01,200.24Z" style="fill:white;fill-rule:nonzero;"/>
            <path d="M39.64,171.64L29.73,165.92L29.73,177.36L39.64,183.08L39.64,171.64Z" style="fill:white;fill-rule:nonzero;"/>
            <path d="M109.01,211.69L118.92,217.41L118.92,205.96L109.01,200.24L109.01,211.69Z" style="fill:white;fill-rule:nonzero;"/>
            <path d="M39.64,183.08L29.73,177.36L29.73,188.8L39.64,194.52L39.64,183.08Z" style="fill:white;fill-rule:nonzero;"/>
            <path d="M39.64,217.41L29.73,211.69L29.73,223.13L39.64,228.85L39.64,217.41Z" style="fill:white;fill-rule:nonzero;"/>
            <path d="M118.61,228.67L128.52,234.39L128.52,222.95L118.61,217.23L118.61,228.67Z" style="fill:white;fill-rule:nonzero;"/>
            <path d="M118.61,240.11L128.52,245.83L128.52,234.39L118.61,228.67L118.61,240.11Z" style="fill:white;fill-rule:nonzero;"/>
            <path d="M59.46,183.08L49.55,177.36L49.55,188.8L59.46,194.52L59.46,183.08Z" style="fill:white;fill-rule:nonzero;"/>
            <path d="M49.55,234.57L49.55,246.01L59.46,251.74L59.46,240.29L49.55,234.57Z" style="fill:white;fill-rule:nonzero;"/>
            <path d="M89.19,234.57L99.1,240.29L99.1,228.85L89.19,223.13L89.19,234.57Z" style="fill:white;fill-rule:nonzero;"/>
            <path d="M89.19,223.13L89.19,211.69L79.28,205.97L79.28,217.41L89.19,223.13Z" style="fill:white;fill-rule:nonzero;"/>
            <path d="M79.28,217.41L79.28,205.97L69.37,200.24L69.37,211.69L79.28,217.41Z" style="fill:white;fill-rule:nonzero;"/>
            <path d="M99.1,274.62L109.01,280.34L109.01,268.9L99.1,263.18L99.1,274.62Z" style="fill:white;fill-rule:nonzero;"/>
            <path d="M79.28,240.29L79.28,251.73L89.19,257.46L89.19,246.01L79.28,240.29Z" style="fill:white;fill-rule:nonzero;"/>
            <path d="M69.37,211.69L59.46,205.97L59.46,217.41L69.37,223.13L69.37,211.69Z" style="fill:white;fill-rule:nonzero;"/>
            <path d="M89.19,246.01L99.1,251.73L99.1,240.29L89.19,234.57L89.19,246.01Z" style="fill:white;fill-rule:nonzero;"/>
            <path d="M69.37,234.57L69.37,246.01L79.28,251.73L79.28,240.29L69.37,234.57Z" style="fill:white;fill-rule:nonzero;"/>
            <path d="M69.37,223.13L59.46,217.41L59.46,228.85L69.37,234.57L69.37,223.13Z" style="fill:white;fill-rule:nonzero;"/>
            <path d="M79.28,263.18L79.28,274.62L89.19,280.34L89.19,268.9L79.28,263.18Z" style="fill:white;fill-rule:nonzero;"/>
            <path d="M49.55,223.13L39.64,217.41L39.64,228.85L49.55,234.57L49.55,223.13Z" style="fill:white;fill-rule:nonzero;"/>
            <path d="M59.46,251.74L59.46,263.18L69.37,268.9L69.37,257.46L59.46,251.74Z" style="fill:white;fill-rule:nonzero;"/>
            <path d="M109.01,223.13L118.92,228.85L118.92,217.41L109.01,211.69L109.01,223.13Z" style="fill:white;fill-rule:nonzero;"/>
            <path d="M49.55,246.01L49.55,257.46L59.46,263.18L59.46,251.74L49.55,246.01Z" style="fill:white;fill-rule:nonzero;"/>
            <path d="M49.55,234.57L39.64,228.85L39.64,240.29L49.55,246.01L49.55,234.57Z" style="fill:white;fill-rule:nonzero;"/>
            <path d="M39.64,240.29L39.64,251.74L49.55,257.46L49.55,246.01L39.64,240.29Z" style="fill:white;fill-rule:nonzero;"/>
            <path d="M89.19,268.9L89.19,280.34L99.1,286.06L99.1,274.62L89.19,268.9Z" style="fill:white;fill-rule:nonzero;"/>
            <path d="M69.37,257.46L69.37,268.9L79.28,274.62L79.28,263.18L69.37,257.46Z" style="fill:white;fill-rule:nonzero;"/>
            <path d="M109.01,246.01L118.92,251.73L118.92,240.29L109.01,234.57L109.01,246.01Z" style="fill:white;fill-rule:nonzero;"/>
            <path d="M109.01,234.57L118.92,240.29L118.92,228.85L109.01,223.13L109.01,234.57Z" style="fill:white;fill-rule:nonzero;"/>
            <path d="M99.1,274.62L99.1,286.06L109.01,291.78L109.01,280.34L99.1,274.62Z" style="fill:white;fill-rule:nonzero;"/>
            <path d="M109.01,257.45L118.92,263.18L118.92,251.73L109.01,246.01L109.01,257.45Z" style="fill:white;fill-rule:nonzero;"/>
            <path d="M109.01,291.78L118.92,297.5L118.92,286.06L109.01,280.34L109.01,291.78Z" style="fill:white;fill-rule:nonzero;"/>
            <path d="M109.01,280.34L118.92,286.06L118.92,274.62L109.01,268.9L109.01,280.34Z" style="fill:white;fill-rule:nonzero;"/>
            <path d="M109.01,268.9L118.92,274.62L118.92,263.18L109.01,257.45L109.01,268.9Z" style="fill:white;fill-rule:nonzero;"/>
            <path d="M109.01,211.69L109.01,200.24L99.1,194.52L99.1,205.96L109.01,211.69Z" style="fill:white;fill-rule:nonzero;"/>
            <path d="M99.1,205.96L99.1,194.52L89.19,188.8L89.19,200.24L99.1,205.96Z" style="fill:white;fill-rule:nonzero;"/>
            <path d="M99.1,217.41L109.01,223.13L109.01,211.69L99.1,205.96L99.1,217.41Z" style="fill:white;fill-rule:nonzero;"/>
            <path d="M89.19,200.24L89.19,188.8L79.28,183.08L79.28,194.52L89.19,200.24Z" style="fill:white;fill-rule:nonzero;"/>
            <path d="M49.55,211.69L39.64,205.97L39.64,217.41L49.55,223.13L49.55,211.69Z" style="fill:white;fill-rule:nonzero;"/>
            <path d="M49.55,188.8L39.64,183.08L39.64,194.52L49.55,200.25L49.55,188.8Z" style="fill:white;fill-rule:nonzero;"/>
            <path d="M49.55,200.25L39.64,194.52L39.64,205.97L49.55,211.69L49.55,200.25Z" style="fill:white;fill-rule:nonzero;"/>
            <path d="M49.55,177.36L39.64,171.64L39.64,183.08L49.55,188.8L49.55,177.36Z" style="fill:white;fill-rule:nonzero;"/>
            <path d="M79.28,194.52L79.28,183.08L69.37,177.36L69.37,188.8L79.28,194.52Z" style="fill:white;fill-rule:nonzero;"/>
            <path d="M69.37,188.8L69.37,177.36L59.46,171.64L59.46,183.08L69.37,188.8Z" style="fill:white;fill-rule:nonzero;"/>
            <path d="M49.55,165.92L39.64,160.2L39.64,171.64L49.55,177.36L49.55,165.92Z" style="fill:white;fill-rule:nonzero;"/>
            <path d="M59.46,183.08L59.46,171.64L49.55,165.92L49.55,177.36L59.46,183.08Z" style="fill:white;fill-rule:nonzero;"/>
            <path d="M9.92,120.15L0,114.43L0,125.87L9.92,131.59L9.92,120.15Z" style="fill:white;fill-rule:nonzero;"/>
            <path d="M9.92,131.59L0,125.87L0,137.31L9.91,143.04L9.92,131.59Z" style="fill:white;fill-rule:nonzero;"/>
            <path d="M9.91,143.04L0,137.31L0,148.76L9.91,154.48L9.91,143.04Z" style="fill:white;fill-rule:nonzero;"/>
            <path d="M29.74,120.15L29.74,108.71L19.83,102.99L19.83,114.43L29.74,120.15Z" style="fill:white;fill-rule:nonzero;"/>
            <path d="M9.92,97.27L0,91.54L0,102.99L9.92,108.71L9.92,97.27Z" style="fill:white;fill-rule:nonzero;"/>
            <path d="M9.92,108.71L0,102.99L0,114.43L9.92,120.15L9.92,108.71Z" style="fill:white;fill-rule:nonzero;"/>
            <path d="M19.83,114.43L19.83,102.99L9.92,97.27L9.92,108.71L19.83,114.43Z" style="fill:white;fill-rule:nonzero;"/>
            <path d="M9.91,223.13L0,217.41L0,228.85L9.91,234.57L9.91,223.13Z" style="fill:white;fill-rule:nonzero;"/>
            <path d="M9.91,234.57L0,228.85L0,240.3L9.91,246.02L9.91,234.57Z" style="fill:white;fill-rule:nonzero;"/>
            <path d="M118.92,171.64L118.92,160.19L109.01,154.47L109.01,165.92L118.92,171.64Z" style="fill:white;fill-rule:nonzero;"/>
            <path d="M138.74,183.08L138.74,171.64L128.83,165.92L128.83,177.36L138.74,183.08Z" style="fill:white;fill-rule:nonzero;"/>
            <path d="M39.64,125.87L39.65,114.43L29.74,108.71L29.74,120.15L39.64,125.87Z" style="fill:white;fill-rule:nonzero;"/>
            <path d="M9.91,246.02L0,240.3L0,251.74L9.91,257.46L9.91,246.02Z" style="fill:white;fill-rule:nonzero;"/>
            <path d="M128.83,177.36L128.83,165.92L118.92,160.19L118.92,171.64L128.83,177.36Z" style="fill:white;fill-rule:nonzero;"/>
            <path d="M138.74,194.52L148.65,200.24L148.65,188.8L138.74,183.08L138.74,194.52Z" style="fill:white;fill-rule:nonzero;"/>
            <path d="M138.74,217.41L148.65,223.13L148.65,211.68L138.74,205.96L138.74,217.41Z" style="fill:white;fill-rule:nonzero;"/>
            <path d="M138.74,205.96L148.65,211.68L148.65,200.24L138.74,194.52L138.74,205.96Z" style="fill:white;fill-rule:nonzero;"/>
            <path d="M148.65,188.8L148.65,177.36L138.74,171.64L138.74,183.08L148.65,188.8Z" style="fill:white;fill-rule:nonzero;"/>
            <path d="M49.55,131.59L49.55,120.15L39.65,114.43L39.64,125.87L49.55,131.59Z" style="fill:white;fill-rule:nonzero;"/>
            <path d="M148.65,177.36L148.65,188.8L158.56,194.52L158.56,183.08L148.65,177.36Z" style="fill:white;fill-rule:nonzero;"/>
            <path d="M148.65,314.67L158.56,320.39L158.56,308.94L148.65,303.22L148.65,314.67Z" style="fill:white;fill-rule:nonzero;"/>
            <path d="M148.64,348.99L158.55,354.71L158.55,343.27L148.64,337.55L148.64,348.99Z" style="fill:white;fill-rule:nonzero;"/>
            <path d="M148.64,360.43L158.55,366.16L158.55,354.71L148.64,348.99L148.64,360.43Z" style="fill:white;fill-rule:nonzero;"/>
            <path d="M148.64,337.55L158.55,343.27L158.55,331.83L148.65,326.11L148.64,337.55Z" style="fill:white;fill-rule:nonzero;"/>
            <path d="M148.65,326.11L158.55,331.83L158.56,320.39L148.65,314.67L148.65,326.11Z" style="fill:white;fill-rule:nonzero;"/>
            <path d="M148.65,200.24L158.56,205.96L158.56,194.52L148.65,188.8L148.65,200.24Z" style="fill:white;fill-rule:nonzero;"/>
            <path d="M138.74,228.85L148.65,234.57L148.65,223.13L138.74,217.41L138.74,228.85Z" style="fill:white;fill-rule:nonzero;"/>
            <path d="M148.65,223.13L158.56,228.85L158.56,217.4L148.65,211.68L148.65,223.13Z" style="fill:white;fill-rule:nonzero;"/>
            <path d="M148.65,234.57L158.56,240.29L158.56,228.85L148.65,223.13L148.65,234.57Z" style="fill:white;fill-rule:nonzero;"/>
            <path d="M128.83,337.55L128.82,348.99L138.73,354.71L138.73,343.27L128.83,337.55Z" style="fill:white;fill-rule:nonzero;"/>
            <path d="M39.64,286.06L39.64,297.51L49.55,303.23L49.55,291.78L39.64,286.06Z" style="fill:white;fill-rule:nonzero;"/>
            <path d="M29.73,280.34L29.73,291.79L39.64,297.51L39.64,286.06L29.73,280.34Z" style="fill:white;fill-rule:nonzero;"/>
            <path d="M19.82,274.62L19.82,286.06L29.73,291.79L29.73,280.34L19.82,274.62Z" style="fill:white;fill-rule:nonzero;"/>
            <path d="M0,263.18L0,274.62L9.91,280.34L9.91,268.9L0,263.18Z" style="fill:white;fill-rule:nonzero;"/>
            <path d="M9.91,268.9L9.91,280.34L19.82,286.06L19.82,274.62L9.91,268.9Z" style="fill:white;fill-rule:nonzero;"/>
            <path d="M138.73,343.27L138.73,354.71L148.64,360.43L148.64,348.99L138.73,343.27Z" style="fill:white;fill-rule:nonzero;"/>
            <path d="M109.01,326.11L109.01,337.55L118.92,343.27L118.92,331.83L109.01,326.11Z" style="fill:white;fill-rule:nonzero;"/>
            <path d="M118.92,331.83L118.92,343.27L128.82,348.99L128.83,337.55L118.92,331.83Z" style="fill:white;fill-rule:nonzero;"/>
            <path d="M9.91,257.46L0,251.74L0,263.18L9.91,268.9L9.91,257.46Z" style="fill:white;fill-rule:nonzero;"/>
            <path d="M148.65,211.68L158.56,217.4L158.56,205.96L148.65,200.24L148.65,211.68Z" style="fill:white;fill-rule:nonzero;"/>
            <path d="M138.74,194.52L138.74,183.08L128.83,177.36L128.83,188.8L138.74,194.52Z" style="fill:white;fill-rule:nonzero;"/>
            <path d="M128.83,188.8L128.83,177.36L118.92,171.64L118.92,183.08L128.83,188.8Z" style="fill:white;fill-rule:nonzero;"/>
            <path d="M118.92,183.08L118.92,171.64L109.01,165.92L109.01,177.36L118.92,183.08Z" style="fill:white;fill-rule:nonzero;"/>
            <path d="M19.83,114.43L9.92,108.71L9.92,120.15L19.83,125.87L19.83,114.43Z" style="fill:white;fill-rule:nonzero;"/>
            <path d="M19.83,125.87L9.92,120.15L9.92,131.59L19.82,137.31L19.83,125.87Z" style="fill:white;fill-rule:nonzero;"/>
            <path d="M19.82,137.31L9.92,131.59L9.91,143.04L19.82,148.76L19.82,137.31Z" style="fill:white;fill-rule:nonzero;"/>
            <path d="M49.55,143.03L49.55,131.59L39.64,125.87L39.64,137.31L49.55,143.03Z" style="fill:white;fill-rule:nonzero;"/>
            <path d="M39.64,137.31L39.64,125.87L29.74,120.15L29.73,131.59L39.64,137.31Z" style="fill:white;fill-rule:nonzero;"/>
            <path d="M29.73,131.59L29.74,120.15L19.83,114.43L19.83,125.87L29.73,131.59Z" style="fill:white;fill-rule:nonzero;"/>
            <path d="M19.82,148.76L9.91,143.04L9.91,154.48L19.82,160.2L19.82,148.76Z" style="fill:white;fill-rule:nonzero;"/>
            <path d="M128.83,326.11L128.83,337.55L138.73,343.27L138.74,331.83L128.83,326.11Z" style="fill:white;fill-rule:nonzero;"/>
            <path d="M118.92,320.39L118.92,331.83L128.83,337.55L128.83,326.11L118.92,320.39Z" style="fill:white;fill-rule:nonzero;"/>
            <path d="M109.01,314.67L109.01,326.11L118.92,331.83L118.92,320.39L109.01,314.67Z" style="fill:white;fill-rule:nonzero;"/>
            <path d="M138.73,343.27L148.64,348.99L148.64,337.55L138.74,331.83L138.73,343.27Z" style="fill:white;fill-rule:nonzero;"/>
            <path d="M138.74,320.39L148.65,326.11L148.65,314.67L138.74,308.94L138.74,320.39Z" style="fill:white;fill-rule:nonzero;"/>
            <path d="M138.74,308.94L148.65,314.67L148.65,303.22L138.74,297.5L138.74,308.94Z" style="fill:white;fill-rule:nonzero;"/>
            <path d="M138.74,331.83L148.64,337.55L148.65,326.11L138.74,320.39L138.74,331.83Z" style="fill:white;fill-rule:nonzero;"/>
            <path d="M19.82,228.85L9.91,223.13L9.91,234.57L19.82,240.29L19.82,228.85Z" style="fill:white;fill-rule:nonzero;"/>
            <path d="M19.82,240.29L9.91,234.57L9.91,246.02L19.82,251.74L19.82,240.29Z" style="fill:white;fill-rule:nonzero;"/>
            <path d="M39.64,274.62L39.64,286.06L49.55,291.78L49.55,280.34L39.64,274.62Z" style="fill:white;fill-rule:nonzero;"/>
            <path d="M9.91,257.46L9.91,268.9L19.82,274.62L19.82,263.18L9.91,257.46Z" style="fill:white;fill-rule:nonzero;"/>
            <path d="M19.82,251.74L9.91,246.02L9.91,257.46L19.82,263.18L19.82,251.74Z" style="fill:white;fill-rule:nonzero;"/>
            <path d="M19.82,263.18L19.82,274.62L29.73,280.34L29.73,268.9L19.82,263.18Z" style="fill:white;fill-rule:nonzero;"/>
            <path d="M29.73,268.9L29.73,280.34L39.64,286.06L39.64,274.62L29.73,268.9Z" style="fill:white;fill-rule:nonzero;"/>
        </g>
        <g>
            <path d="M277.45,228.85L287.36,223.13L287.36,211.69L277.45,217.41L277.45,228.85Z" style="fill:white;fill-rule:nonzero;"/>
            <path d="M277.45,240.29L287.36,234.57L287.36,223.13L277.45,228.85L277.45,240.29Z" style="fill:white;fill-rule:nonzero;"/>
            <path d="M257.63,172L257.63,160.55L247.72,166.27L247.72,177.72L257.63,172Z" style="fill:white;fill-rule:nonzero;"/>
            <path d="M277.45,194.52L287.36,188.8L287.36,177.36L277.45,183.08L277.45,194.52Z" style="fill:white;fill-rule:nonzero;"/>
            <path d="M267.54,165.92L267.54,154.83L257.63,160.55L257.63,171.64L267.54,165.92Z" style="fill:white;fill-rule:nonzero;"/>
            <path d="M257.64,263.18L257.64,274.62L267.55,268.9L267.54,257.46L257.64,263.18Z" style="fill:white;fill-rule:nonzero;"/>
            <path d="M277.45,183.08L287.36,177.36L287.36,165.92L277.45,171.64L277.45,183.08Z" style="fill:white;fill-rule:nonzero;"/>
            <path d="M198.18,274.98L188.27,280.7L188.27,292.14L198.18,286.42L198.18,274.98Z" style="fill:white;fill-rule:nonzero;"/>
            <path d="M198.18,263.53L188.27,269.25L188.27,280.7L198.18,274.98L198.18,263.53Z" style="fill:white;fill-rule:nonzero;"/>
            <path d="M198.18,240.65L188.27,246.37L188.27,257.81L198.18,252.09L198.18,240.65Z" style="fill:white;fill-rule:nonzero;"/>
            <path d="M198.18,229.21L188.27,234.93L188.27,246.37L198.18,240.65L198.18,229.21Z" style="fill:white;fill-rule:nonzero;"/>
            <path d="M198.17,217.41L188.27,223.13L188.27,234.93L198.18,229.21L198.17,217.41Z" style="fill:white;fill-rule:nonzero;"/>
            <path d="M208.09,291.78L208.09,303.22L218,297.5L218,286.06L208.09,291.78Z" style="fill:white;fill-rule:nonzero;"/>
            <path d="M208.08,211.69L208.08,200.24L198.17,205.96L198.17,217.41L208.08,211.69Z" style="fill:white;fill-rule:nonzero;"/>
            <path d="M218,286.06L218,297.5L227.91,291.78L227.91,280.34L218,286.06Z" style="fill:white;fill-rule:nonzero;"/>
            <path d="M247.73,268.9L247.73,280.34L257.64,274.62L257.64,263.18L247.73,268.9Z" style="fill:white;fill-rule:nonzero;"/>
            <path d="M217.99,194.88L217.99,183.44L208.08,189.16L208.08,200.6L217.99,194.88Z" style="fill:white;fill-rule:nonzero;"/>
            <path d="M227.9,189.16L227.9,177.72L217.99,183.44L217.99,194.88L227.9,189.16Z" style="fill:white;fill-rule:nonzero;"/>
            <path d="M208.09,268.9L208.09,280.34L218,274.62L218,263.18L208.09,268.9Z" style="fill:white;fill-rule:nonzero;"/>
            <path d="M257.63,251.74L267.54,246.01L267.54,234.57L257.63,240.29L257.63,251.74Z" style="fill:white;fill-rule:nonzero;"/>
            <path d="M237.81,217.41L237.81,205.97L227.9,211.69L227.9,223.13L237.81,217.41Z" style="fill:white;fill-rule:nonzero;"/>
            <path d="M227.9,223.13L217.99,228.85L218,240.29L227.9,234.57L227.9,223.13Z" style="fill:white;fill-rule:nonzero;"/>
            <path d="M227.9,234.57L218,240.29L218,251.73L227.91,246.01L227.9,234.57Z" style="fill:white;fill-rule:nonzero;"/>
            <path d="M267.54,188.8L267.54,177.36L257.63,183.08L257.63,194.52L267.54,188.8Z" style="fill:white;fill-rule:nonzero;"/>
            <path d="M247.72,223.13L257.63,217.41L257.63,205.97L247.72,211.69L247.72,223.13Z" style="fill:white;fill-rule:nonzero;"/>
            <path d="M227.91,246.01L227.91,257.46L237.82,251.73L237.81,240.29L227.91,246.01Z" style="fill:white;fill-rule:nonzero;"/>
            <path d="M247.72,211.69L247.72,200.24L237.81,205.97L237.81,217.41L247.72,211.69Z" style="fill:white;fill-rule:nonzero;"/>
            <path d="M247.72,234.57L257.63,228.85L257.63,217.41L247.72,223.13L247.72,234.57Z" style="fill:white;fill-rule:nonzero;"/>
            <path d="M237.81,240.29L237.82,251.73L247.72,246.01L247.72,234.57L237.81,240.29Z" style="fill:white;fill-rule:nonzero;"/>
            <path d="M267.54,211.69L277.45,205.97L277.45,194.52L267.54,200.25L267.54,211.69Z" style="fill:white;fill-rule:nonzero;"/>
            <path d="M247.73,257.46L247.73,268.9L257.64,263.18L257.63,251.74L247.73,257.46Z" style="fill:white;fill-rule:nonzero;"/>
            <path d="M267.54,234.57L277.45,228.85L277.45,217.41L267.54,223.13L267.54,234.57Z" style="fill:white;fill-rule:nonzero;"/>
            <path d="M217.99,205.96L217.99,194.52L208.08,200.24L208.08,211.69L217.99,205.96Z" style="fill:white;fill-rule:nonzero;"/>
            <path d="M267.54,246.01L277.45,240.29L277.45,228.85L267.54,234.57L267.54,246.01Z" style="fill:white;fill-rule:nonzero;"/>
            <path d="M257.63,251.74L257.64,263.18L267.54,257.46L267.54,246.01L257.63,251.74Z" style="fill:white;fill-rule:nonzero;"/>
            <path d="M267.54,257.46L277.45,251.74L277.45,240.29L267.54,246.01L267.54,257.46Z" style="fill:white;fill-rule:nonzero;"/>
            <path d="M267.54,200.25L277.45,194.52L277.45,183.08L267.54,188.8L267.54,200.25Z" style="fill:white;fill-rule:nonzero;"/>
            <path d="M267.54,223.13L277.45,217.41L277.45,205.97L267.54,211.69L267.54,223.13Z" style="fill:white;fill-rule:nonzero;"/>
            <path d="M237.81,194.52L237.81,183.08L227.9,188.8L227.9,200.24L237.81,194.52Z" style="fill:white;fill-rule:nonzero;"/>
            <path d="M227.9,200.24L227.9,188.8L217.99,194.52L217.99,205.96L227.9,200.24Z" style="fill:white;fill-rule:nonzero;"/>
            <path d="M267.54,188.8L277.45,183.08L277.45,171.64L267.54,177.36L267.54,188.8Z" style="fill:white;fill-rule:nonzero;"/>
            <path d="M247.72,188.8L247.72,177.36L237.81,183.08L237.81,194.52L247.72,188.8Z" style="fill:white;fill-rule:nonzero;"/>
            <path d="M277.45,171.64L277.45,160.2L267.54,165.92L267.54,177.36L277.45,171.64Z" style="fill:white;fill-rule:nonzero;"/>
            <path d="M267.54,177.36L267.54,165.92L257.63,171.64L257.63,183.08L267.54,177.36Z" style="fill:white;fill-rule:nonzero;"/>
            <path d="M257.63,183.08L257.63,171.64L247.72,177.36L247.72,188.8L257.63,183.08Z" style="fill:white;fill-rule:nonzero;"/>
            <path d="M208.08,211.69L198.17,217.41L198.18,228.85L208.08,223.13L208.08,211.69Z" style="fill:white;fill-rule:nonzero;"/>
            <path d="M208.08,223.13L198.18,228.85L198.18,240.29L208.09,234.57L208.08,223.13Z" style="fill:white;fill-rule:nonzero;"/>
            <path d="M217.99,217.41L217.99,205.96L208.08,211.69L208.08,223.13L217.99,217.41Z" style="fill:white;fill-rule:nonzero;"/>
            <path d="M208.09,234.57L198.18,240.29L198.18,251.73L208.09,246.01L208.09,234.57Z" style="fill:white;fill-rule:nonzero;"/>
            <path d="M237.82,263.18L237.82,274.62L247.73,268.9L247.73,257.46L237.82,263.18Z" style="fill:white;fill-rule:nonzero;"/>
            <path d="M218,274.62L218,286.06L227.91,280.34L227.91,268.9L218,274.62Z" style="fill:white;fill-rule:nonzero;"/>
            <path d="M227.91,268.9L227.91,280.34L237.82,274.62L237.82,263.18L227.91,268.9Z" style="fill:white;fill-rule:nonzero;"/>
            <path d="M208.09,280.34L208.09,291.78L218,286.06L218,274.62L208.09,280.34Z" style="fill:white;fill-rule:nonzero;"/>
            <path d="M208.09,246.01L198.18,251.73L198.18,263.18L208.09,257.45L208.09,246.01Z" style="fill:white;fill-rule:nonzero;"/>
            <path d="M208.09,257.45L198.18,263.18L198.18,274.62L208.09,268.9L208.09,257.45Z" style="fill:white;fill-rule:nonzero;"/>
            <path d="M198.18,286.06L198.18,297.5L208.09,291.78L208.09,280.34L198.18,286.06Z" style="fill:white;fill-rule:nonzero;"/>
            <path d="M208.09,268.9L198.18,274.62L198.18,286.06L208.09,280.34L208.09,268.9Z" style="fill:white;fill-rule:nonzero;"/>
            <path d="M178.36,343.27L178.36,354.71L188.27,348.99L188.27,337.55L178.36,343.27Z" style="fill:white;fill-rule:nonzero;"/>
            <path d="M188.27,337.55L188.27,348.99L198.18,343.27L198.18,331.83L188.27,337.55Z" style="fill:white;fill-rule:nonzero;"/>
            <path d="M198.18,331.83L198.18,343.27L208.09,337.55L208.09,326.11L198.18,331.83Z" style="fill:white;fill-rule:nonzero;"/>
            <path d="M168.45,326.11L158.54,331.83L158.54,343.27L168.45,337.55L168.45,326.11Z" style="fill:white;fill-rule:nonzero;"/>
            <path d="M158.54,354.71L158.54,366.16L168.45,360.43L168.45,348.99L158.54,354.71Z" style="fill:white;fill-rule:nonzero;"/>
            <path d="M168.45,348.99L168.45,360.43L178.36,354.71L178.36,343.27L168.45,348.99Z" style="fill:white;fill-rule:nonzero;"/>
            <path d="M168.45,337.55L158.54,343.27L158.54,354.71L168.45,348.99L168.45,337.55Z" style="fill:white;fill-rule:nonzero;"/>
            <path d="M267.55,291.78L267.55,303.23L277.46,297.51L277.46,286.06L267.55,291.78Z" style="fill:white;fill-rule:nonzero;"/>
            <path d="M277.46,286.06L277.46,297.51L287.37,291.79L287.37,280.34L277.46,286.06Z" style="fill:white;fill-rule:nonzero;"/>
            <path d="M168.45,223.13L158.54,228.85L158.54,240.29L168.45,234.57L168.45,223.13Z" style="fill:white;fill-rule:nonzero;"/>
            <path d="M168.44,200.24L158.54,205.96L158.54,217.4L168.45,211.68L168.44,200.24Z" style="fill:white;fill-rule:nonzero;"/>
            <path d="M168.45,314.67L158.54,320.39L158.54,331.83L168.45,326.11L168.45,314.67Z" style="fill:white;fill-rule:nonzero;"/>
            <path d="M287.37,280.34L287.37,291.79L297.28,286.06L297.27,274.62L287.37,280.34Z" style="fill:white;fill-rule:nonzero;"/>
            <path d="M168.45,211.68L158.54,217.4L158.54,228.85L168.45,223.13L168.45,211.68Z" style="fill:white;fill-rule:nonzero;"/>
            <path d="M178.35,194.52L178.35,183.08L168.44,188.8L168.44,200.24L178.35,194.52Z" style="fill:white;fill-rule:nonzero;"/>
            <path d="M198.17,183.08L198.17,171.64L188.26,177.36L188.26,188.8L198.17,183.08Z" style="fill:white;fill-rule:nonzero;"/>
            <path d="M188.26,188.8L188.26,177.36L178.35,183.08L178.35,194.52L188.26,188.8Z" style="fill:white;fill-rule:nonzero;"/>
            <path d="M168.44,188.8L158.53,194.52L158.54,205.96L168.44,200.24L168.44,188.8Z" style="fill:white;fill-rule:nonzero;"/>
            <path d="M168.45,303.22L158.54,308.94L158.54,320.39L168.45,314.67L168.45,303.22Z" style="fill:white;fill-rule:nonzero;"/>
            <path d="M158.53,194.52L168.44,188.8L168.44,177.36L158.53,183.08L158.53,194.52Z" style="fill:white;fill-rule:nonzero;"/>
            <path d="M277.45,125.87L277.45,114.43L267.54,120.15L267.54,131.59L277.45,125.87Z" style="fill:white;fill-rule:nonzero;"/>
            <path d="M307.18,108.71L307.18,97.27L297.27,102.99L297.27,114.43L307.18,108.71Z" style="fill:white;fill-rule:nonzero;"/>
            <path d="M317.09,102.99L317.09,91.54L307.18,97.27L307.18,108.71L317.09,102.99Z" style="fill:white;fill-rule:nonzero;"/>
            <path d="M297.27,114.43L297.27,102.99L287.36,108.71L287.36,120.15L297.27,114.43Z" style="fill:white;fill-rule:nonzero;"/>
            <path d="M287.36,120.15L287.36,108.71L277.45,114.43L277.45,125.87L287.36,120.15Z" style="fill:white;fill-rule:nonzero;"/>
            <path d="M178.35,183.08L178.35,171.64L168.44,177.36L168.44,188.8L178.35,183.08Z" style="fill:white;fill-rule:nonzero;"/>
            <path d="M208.08,177.36L208.08,165.92L198.17,171.64L198.17,183.08L208.08,177.36Z" style="fill:white;fill-rule:nonzero;"/>
            <path d="M198.17,171.64L198.17,160.19L188.26,165.92L188.26,177.36L198.17,171.64Z" style="fill:white;fill-rule:nonzero;"/>
            <path d="M208.08,165.92L208.08,154.47L198.17,160.19L198.17,171.64L208.08,165.92Z" style="fill:white;fill-rule:nonzero;"/>
            <path d="M307.18,131.59L317.09,125.87L317.09,114.43L307.18,120.15L307.18,131.59Z" style="fill:white;fill-rule:nonzero;"/>
            <path d="M307.18,234.57L317.09,228.85L317.09,217.41L307.18,223.13L307.18,234.57Z" style="fill:white;fill-rule:nonzero;"/>
            <path d="M307.18,246.02L317.09,240.3L317.09,228.85L307.18,234.57L307.18,246.02Z" style="fill:white;fill-rule:nonzero;"/>
            <path d="M307.18,257.46L317.09,251.74L317.09,240.3L307.18,246.02L307.18,257.46Z" style="fill:white;fill-rule:nonzero;"/>
            <path d="M307.18,280.34L317.09,274.62L317.09,263.18L307.18,268.9L307.18,280.34Z" style="fill:white;fill-rule:nonzero;"/>
            <path d="M307.18,268.9L317.09,263.18L317.09,251.74L307.18,257.46L307.18,268.9Z" style="fill:white;fill-rule:nonzero;"/>
            <path d="M307.18,120.15L317.09,114.43L317.09,102.99L307.18,108.71L307.18,120.15Z" style="fill:white;fill-rule:nonzero;"/>
            <path d="M307.18,154.48L317.09,148.76L317.09,137.31L307.18,143.04L307.18,154.48Z" style="fill:white;fill-rule:nonzero;"/>
            <path d="M307.18,143.04L317.09,137.31L317.09,125.87L307.18,131.59L307.18,143.04Z" style="fill:white;fill-rule:nonzero;"/>
            <path d="M297.27,274.62L297.28,286.06L307.18,280.34L307.18,268.9L297.27,274.62Z" style="fill:white;fill-rule:nonzero;"/>
            <path d="M188.26,177.36L188.26,165.92L178.35,171.64L178.35,183.08L188.26,177.36Z" style="fill:white;fill-rule:nonzero;"/>
            <path d="M178.35,194.52L168.44,200.24L168.45,211.68L178.35,205.96L178.35,194.52Z" style="fill:white;fill-rule:nonzero;"/>
            <path d="M178.35,205.96L168.45,211.68L168.45,223.13L178.36,217.41L178.35,205.96Z" style="fill:white;fill-rule:nonzero;"/>
            <path d="M178.36,217.41L168.45,223.13L168.45,234.57L178.36,228.85L178.36,217.41Z" style="fill:white;fill-rule:nonzero;"/>
            <path d="M168.45,337.55L168.45,348.99L178.36,343.27L178.36,331.83L168.45,337.55Z" style="fill:white;fill-rule:nonzero;"/>
            <path d="M178.36,331.83L178.36,343.27L188.27,337.55L188.27,326.11L178.36,331.83Z" style="fill:white;fill-rule:nonzero;"/>
            <path d="M188.27,326.11L188.27,337.55L198.18,331.83L198.18,320.39L188.27,326.11Z" style="fill:white;fill-rule:nonzero;"/>
            <path d="M178.36,297.5L168.45,303.22L168.45,314.67L178.36,308.94L178.36,297.5Z" style="fill:white;fill-rule:nonzero;"/>
            <path d="M178.36,308.94L168.45,314.67L168.45,326.11L178.36,320.39L178.36,308.94Z" style="fill:white;fill-rule:nonzero;"/>
            <path d="M178.36,320.39L168.45,326.11L168.45,337.55L178.36,331.83L178.36,320.39Z" style="fill:white;fill-rule:nonzero;"/>
            <path d="M198.18,320.39L198.18,331.83L208.09,326.11L208.09,314.67L198.18,320.39Z" style="fill:white;fill-rule:nonzero;"/>
            <path d="M297.27,137.31L307.18,131.59L307.18,120.15L297.27,125.87L297.27,137.31Z" style="fill:white;fill-rule:nonzero;"/>
            <path d="M297.27,148.76L307.18,143.04L307.18,131.59L297.27,137.31L297.27,148.76Z" style="fill:white;fill-rule:nonzero;"/>
            <path d="M297.27,160.2L307.18,154.48L307.18,143.04L297.27,148.76L297.27,160.2Z" style="fill:white;fill-rule:nonzero;"/>
            <path d="M307.18,120.15L307.18,108.71L297.27,114.43L297.27,125.87L307.18,120.15Z" style="fill:white;fill-rule:nonzero;"/>
            <path d="M287.36,131.59L287.36,120.15L277.45,125.87L277.45,137.31L287.36,131.59Z" style="fill:white;fill-rule:nonzero;"/>
            <path d="M277.45,137.31L277.45,125.87L267.54,131.59L267.54,143.03L277.45,137.31Z" style="fill:white;fill-rule:nonzero;"/>
            <path d="M297.27,125.87L297.27,114.43L287.36,120.15L287.36,131.59L297.27,125.87Z" style="fill:white;fill-rule:nonzero;"/>
            <path d="M267.55,280.34L267.55,291.78L277.46,286.06L277.46,274.62L267.55,280.34Z" style="fill:white;fill-rule:nonzero;"/>
            <path d="M277.46,274.62L277.46,286.06L287.37,280.34L287.36,268.9L277.46,274.62Z" style="fill:white;fill-rule:nonzero;"/>
            <path d="M297.27,240.29L307.18,234.57L307.18,223.13L297.27,228.85L297.27,240.29Z" style="fill:white;fill-rule:nonzero;"/>
            <path d="M297.27,274.62L307.18,268.9L307.18,257.46L297.27,263.18L297.27,274.62Z" style="fill:white;fill-rule:nonzero;"/>
            <path d="M287.36,268.9L287.37,280.34L297.27,274.62L297.27,263.18L287.36,268.9Z" style="fill:white;fill-rule:nonzero;"/>
            <path d="M297.27,263.18L307.18,257.46L307.18,246.02L297.27,251.74L297.27,263.18Z" style="fill:white;fill-rule:nonzero;"/>
            <path d="M297.27,251.74L307.18,246.02L307.18,234.57L297.27,240.29L297.27,251.74Z" style="fill:white;fill-rule:nonzero;"/>
        </g>
        <g>
            <path d="M178.36,125.87L188.27,131.6L198.18,125.87L188.27,120.15L178.36,125.87Z" style="fill:white;fill-rule:nonzero;"/>
            <path d="M168.46,131.6L178.36,137.32L188.27,131.6L178.36,125.87L168.46,131.6Z" style="fill:white;fill-rule:nonzero;"/>
            <path d="M217.69,80.28L227.6,74.56L217.69,68.84L207.78,74.56L217.69,80.28Z" style="fill:white;fill-rule:nonzero;"/>
            <path d="M208.09,108.71L218,114.43L227.91,108.71L218,102.99L208.09,108.71Z" style="fill:white;fill-rule:nonzero;"/>
            <path d="M227.91,85.82L237.51,80.28L227.6,74.56L218,80.1L227.91,85.82Z" style="fill:white;fill-rule:nonzero;"/>
            <path d="M207.78,74.56L217.69,68.84L207.78,63.12L197.87,68.84L207.78,74.56Z" style="fill:white;fill-rule:nonzero;"/>
            <path d="M138.73,125.87L128.82,131.6L138.73,137.32L148.64,131.6L138.73,125.87Z" style="fill:white;fill-rule:nonzero;"/>
            <path d="M218,102.99L227.91,108.71L237.82,102.99L227.91,97.27L218,102.99Z" style="fill:white;fill-rule:nonzero;"/>
            <path d="M98.78,80.28L88.87,74.56L78.96,80.28L88.87,86L98.78,80.28Z" style="fill:white;fill-rule:nonzero;"/>
            <path d="M108.69,74.56L98.78,68.84L88.87,74.56L98.78,80.28L108.69,74.56Z" style="fill:white;fill-rule:nonzero;"/>
            <path d="M138.42,57.39L128.51,51.67L118.6,57.39L128.51,63.12L138.42,57.39Z" style="fill:white;fill-rule:nonzero;"/>
            <path d="M148.64,51.49L138.73,45.77L128.51,51.67L138.42,57.39L148.64,51.49Z" style="fill:white;fill-rule:nonzero;"/>
            <path d="M89.18,97.27L79.27,102.99L89.18,108.71L99.09,102.99L89.18,97.27Z" style="fill:white;fill-rule:nonzero;"/>
            <path d="M158.55,57.22L168.46,51.49L158.55,45.77L148.64,51.49L158.55,57.22Z" style="fill:white;fill-rule:nonzero;"/>
            <path d="M99.09,102.99L89.18,108.71L99.09,114.43L109,108.71L99.09,102.99Z" style="fill:white;fill-rule:nonzero;"/>
            <path d="M128.82,120.15L118.91,125.87L128.82,131.6L138.73,125.87L128.82,120.15Z" style="fill:white;fill-rule:nonzero;"/>
            <path d="M178.06,57.39L187.96,51.67L178.06,45.95L168.15,51.67L178.06,57.39Z" style="fill:white;fill-rule:nonzero;"/>
            <path d="M187.96,63.12L197.87,57.39L187.96,51.67L178.06,57.39L187.96,63.12Z" style="fill:white;fill-rule:nonzero;"/>
            <path d="M109,85.82L99.09,91.54L109,97.27L118.91,91.54L109,85.82Z" style="fill:white;fill-rule:nonzero;"/>
            <path d="M148.64,120.15L158.55,125.87L168.46,120.15L158.55,114.43L148.64,120.15Z" style="fill:white;fill-rule:nonzero;"/>
            <path d="M168.46,85.82L178.36,80.1L168.46,74.38L158.55,80.1L168.46,85.82Z" style="fill:white;fill-rule:nonzero;"/>
            <path d="M158.55,80.1L148.64,74.38L138.73,80.1L148.64,85.82L158.55,80.1Z" style="fill:white;fill-rule:nonzero;"/>
            <path d="M148.64,85.82L138.73,80.1L128.82,85.82L138.73,91.54L148.64,85.82Z" style="fill:white;fill-rule:nonzero;"/>
            <path d="M208.09,97.27L218,91.54L208.09,85.82L198.18,91.54L208.09,97.27Z" style="fill:white;fill-rule:nonzero;"/>
            <path d="M168.46,97.27L178.36,102.99L188.27,97.27L178.36,91.54L168.46,97.27Z" style="fill:white;fill-rule:nonzero;"/>
            <path d="M138.73,91.54L128.82,97.27L138.73,102.99L148.64,97.27L138.73,91.54Z" style="fill:white;fill-rule:nonzero;"/>
            <path d="M178.36,91.54L188.27,85.82L178.36,80.1L168.46,85.82L178.36,91.54Z" style="fill:white;fill-rule:nonzero;"/>
            <path d="M158.55,102.99L168.46,108.71L178.36,102.99L168.46,97.27L158.55,102.99Z" style="fill:white;fill-rule:nonzero;"/>
            <path d="M148.64,97.27L138.73,102.99L148.64,108.71L158.55,102.99L148.64,97.27Z" style="fill:white;fill-rule:nonzero;"/>
            <path d="M188.27,108.71L198.18,114.43L208.09,108.71L198.18,102.99L188.27,108.71Z" style="fill:white;fill-rule:nonzero;"/>
            <path d="M138.73,114.43L128.82,120.15L138.73,125.87L148.64,120.15L138.73,114.43Z" style="fill:white;fill-rule:nonzero;"/>
            <path d="M168.46,120.15L178.36,125.87L188.27,120.15L178.36,114.43L168.46,120.15Z" style="fill:white;fill-rule:nonzero;"/>
            <path d="M168.46,62.94L178.36,57.22L168.46,51.49L158.55,57.22L168.46,62.94Z" style="fill:white;fill-rule:nonzero;"/>
            <path d="M158.55,125.87L168.46,131.6L178.36,125.87L168.46,120.15L158.55,125.87Z" style="fill:white;fill-rule:nonzero;"/>
            <path d="M148.64,120.15L138.73,125.87L148.64,131.6L158.55,125.87L148.64,120.15Z" style="fill:white;fill-rule:nonzero;"/>
            <path d="M148.64,131.6L158.55,137.32L168.46,131.6L158.55,125.87L148.64,131.6Z" style="fill:white;fill-rule:nonzero;"/>
            <path d="M198.18,102.99L208.09,108.71L218,102.99L208.09,97.27L198.18,102.99Z" style="fill:white;fill-rule:nonzero;"/>
            <path d="M178.36,114.43L188.27,120.15L198.18,114.43L188.27,108.71L178.36,114.43Z" style="fill:white;fill-rule:nonzero;"/>
            <path d="M188.27,74.38L198.18,68.66L188.27,62.94L178.36,68.66L188.27,74.38Z" style="fill:white;fill-rule:nonzero;"/>
            <path d="M178.36,68.66L188.27,62.94L178.36,57.22L168.46,62.94L178.36,68.66Z" style="fill:white;fill-rule:nonzero;"/>
            <path d="M208.09,97.27L218,102.99L227.91,97.27L218,91.54L208.09,97.27Z" style="fill:white;fill-rule:nonzero;"/>
            <path d="M198.18,80.1L208.09,74.38L198.18,68.66L188.27,74.38L198.18,80.1Z" style="fill:white;fill-rule:nonzero;"/>
            <path d="M227.91,97.27L237.82,91.54L227.91,85.82L218,91.54L227.91,97.27Z" style="fill:white;fill-rule:nonzero;"/>
            <path d="M218,91.54L227.91,85.82L218,80.1L208.09,85.82L218,91.54Z" style="fill:white;fill-rule:nonzero;"/>
            <path d="M208.09,85.82L218,80.1L208.09,74.38L198.18,80.1L208.09,85.82Z" style="fill:white;fill-rule:nonzero;"/>
            <path d="M158.55,57.22L148.64,51.49L138.73,57.22L148.64,62.94L158.55,57.22Z" style="fill:white;fill-rule:nonzero;"/>
            <path d="M148.64,62.94L138.73,57.22L128.82,62.94L138.73,68.66L148.64,62.94Z" style="fill:white;fill-rule:nonzero;"/>
            <path d="M158.55,68.66L168.46,62.94L158.55,57.22L148.64,62.94L158.55,68.66Z" style="fill:white;fill-rule:nonzero;"/>
            <path d="M138.73,68.66L128.82,62.94L118.91,68.66L128.82,74.38L138.73,68.66Z" style="fill:white;fill-rule:nonzero;"/>
            <path d="M128.82,108.71L118.91,114.43L128.82,120.15L138.73,114.43L128.82,108.71Z" style="fill:white;fill-rule:nonzero;"/>
            <path d="M109,97.27L99.09,102.99L109,108.71L118.91,102.99L109,97.27Z" style="fill:white;fill-rule:nonzero;"/>
            <path d="M118.91,102.99L109,108.71L118.91,114.43L128.82,108.71L118.91,102.99Z" style="fill:white;fill-rule:nonzero;"/>
            <path d="M99.09,91.54L89.18,97.27L99.09,102.99L109,97.27L99.09,91.54Z" style="fill:white;fill-rule:nonzero;"/>
            <path d="M128.82,74.38L118.91,68.66L109,74.38L118.91,80.1L128.82,74.38Z" style="fill:white;fill-rule:nonzero;"/>
            <path d="M118.91,80.1L109,74.38L99.09,80.1L109,85.82L118.91,80.1Z" style="fill:white;fill-rule:nonzero;"/>
            <path d="M89.18,85.82L79.27,91.54L89.18,97.27L99.09,91.54L89.18,85.82Z" style="fill:white;fill-rule:nonzero;"/>
            <path d="M109,85.82L99.09,80.1L89.18,85.82L99.09,91.54L109,85.82Z" style="fill:white;fill-rule:nonzero;"/>
            <path d="M29.73,97.27L19.82,102.99L29.73,108.71L39.64,102.99L29.73,97.27Z" style="fill:white;fill-rule:nonzero;"/>
            <path d="M39.64,102.99L29.73,108.71L39.64,114.43L49.55,108.71L39.64,102.99Z" style="fill:white;fill-rule:nonzero;"/>
            <path d="M49.55,108.71L39.64,114.43L49.55,120.15L59.45,114.43L49.55,108.71Z" style="fill:white;fill-rule:nonzero;"/>
            <path d="M39.64,80.1L29.73,74.38L19.82,80.1L29.73,85.82L39.64,80.1Z" style="fill:white;fill-rule:nonzero;"/>
            <path d="M9.91,85.82L0,91.54L9.91,97.27L19.82,91.54L9.91,85.82Z" style="fill:white;fill-rule:nonzero;"/>
            <path d="M19.82,91.54L9.91,97.27L19.82,102.99L29.73,97.27L19.82,91.54Z" style="fill:white;fill-rule:nonzero;"/>
            <path d="M29.73,85.82L19.82,80.1L9.91,85.82L19.82,91.54L29.73,85.82Z" style="fill:white;fill-rule:nonzero;"/>
            <path d="M118.91,148.76L109,154.48L118.91,160.2L128.82,154.48L118.91,148.76Z" style="fill:white;fill-rule:nonzero;"/>
            <path d="M128.82,154.48L118.91,160.2L128.82,165.92L138.73,160.2L128.82,154.48Z" style="fill:white;fill-rule:nonzero;"/>
            <path d="M128.82,28.61L118.91,22.89L109,28.61L118.91,34.33L128.82,28.61Z" style="fill:white;fill-rule:nonzero;"/>
            <path d="M148.64,17.16L138.73,11.44L128.82,17.16L138.73,22.89L148.64,17.16Z" style="fill:white;fill-rule:nonzero;"/>
            <path d="M49.55,74.38L39.64,68.66L29.73,74.38L39.64,80.1L49.55,74.38Z" style="fill:white;fill-rule:nonzero;"/>
            <path d="M138.73,160.2L128.82,165.92L138.73,171.65L148.64,165.92L138.73,160.2Z" style="fill:white;fill-rule:nonzero;"/>
            <path d="M138.73,22.89L128.82,17.16L118.91,22.89L128.82,28.61L138.73,22.89Z" style="fill:white;fill-rule:nonzero;"/>
            <path d="M158.55,22.89L168.46,17.16L158.55,11.44L148.64,17.16L158.55,22.89Z" style="fill:white;fill-rule:nonzero;"/>
            <path d="M178.36,34.33L188.27,28.61L178.36,22.89L168.46,28.61L178.36,34.33Z" style="fill:white;fill-rule:nonzero;"/>
            <path d="M168.46,28.61L178.36,22.89L168.46,17.16L158.55,22.89L168.46,28.61Z" style="fill:white;fill-rule:nonzero;"/>
            <path d="M158.55,11.44L148.64,5.72L138.73,11.44L148.64,17.16L158.55,11.44Z" style="fill:white;fill-rule:nonzero;"/>
            <path d="M59.45,68.66L49.55,62.94L39.64,68.66L49.55,74.38L59.45,68.66Z" style="fill:white;fill-rule:nonzero;"/>
            <path d="M148.64,5.72L158.55,11.44L168.46,5.72L158.55,0L148.64,5.72Z" style="fill:white;fill-rule:nonzero;"/>
            <path d="M267.55,74.38L277.46,68.66L267.55,62.94L257.64,68.66L267.55,74.38Z" style="fill:white;fill-rule:nonzero;"/>
            <path d="M297.27,91.54L307.18,85.82L297.27,80.1L287.37,85.82L297.27,91.54Z" style="fill:white;fill-rule:nonzero;"/>
            <path d="M307.18,97.27L317.09,91.54L307.18,85.82L297.27,91.54L307.18,97.27Z" style="fill:white;fill-rule:nonzero;"/>
            <path d="M287.37,85.82L297.27,80.1L287.37,74.38L277.46,80.1L287.37,85.82Z" style="fill:white;fill-rule:nonzero;"/>
            <path d="M277.46,80.1L287.37,74.38L277.46,68.66L267.55,74.38L277.46,80.1Z" style="fill:white;fill-rule:nonzero;"/>
            <path d="M168.46,17.16L178.36,11.44L168.46,5.72L158.55,11.44L168.46,17.16Z" style="fill:white;fill-rule:nonzero;"/>
            <path d="M188.27,40.05L198.18,34.33L188.27,28.61L178.36,34.33L188.27,40.05Z" style="fill:white;fill-rule:nonzero;"/>
            <path d="M188.27,28.61L198.18,22.89L188.27,17.16L178.36,22.89L188.27,28.61Z" style="fill:white;fill-rule:nonzero;"/>
            <path d="M198.18,34.33L208.09,28.61L198.18,22.89L188.27,28.61L198.18,34.33Z" style="fill:white;fill-rule:nonzero;"/>
            <path d="M277.46,102.99L287.37,108.71L297.27,102.99L287.37,97.27L277.46,102.99Z" style="fill:white;fill-rule:nonzero;"/>
            <path d="M188.27,154.48L198.18,160.2L208.09,154.48L198.18,148.76L188.27,154.48Z" style="fill:white;fill-rule:nonzero;"/>
            <path d="M178.36,160.2L188.27,165.92L198.18,160.2L188.27,154.48L178.36,160.2Z" style="fill:white;fill-rule:nonzero;"/>
            <path d="M168.46,165.92L178.36,171.65L188.27,165.92L178.36,160.2L168.46,165.92Z" style="fill:white;fill-rule:nonzero;"/>
            <path d="M148.64,177.37L158.55,183.09L168.46,177.37L158.55,171.65L148.64,177.37Z" style="fill:white;fill-rule:nonzero;"/>
            <path d="M158.55,171.65L168.46,177.37L178.36,171.65L168.46,165.92L158.55,171.65Z" style="fill:white;fill-rule:nonzero;"/>
            <path d="M287.37,97.27L297.27,102.99L307.18,97.27L297.27,91.54L287.37,97.27Z" style="fill:white;fill-rule:nonzero;"/>
            <path d="M257.64,114.43L267.55,120.15L277.46,114.43L267.55,108.71L257.64,114.43Z" style="fill:white;fill-rule:nonzero;"/>
            <path d="M267.55,108.71L277.46,114.43L287.37,108.71L277.46,102.99L267.55,108.71Z" style="fill:white;fill-rule:nonzero;"/>
            <path d="M148.64,165.92L138.73,171.65L148.64,177.37L158.55,171.65L148.64,165.92Z" style="fill:white;fill-rule:nonzero;"/>
            <path d="M178.36,22.89L188.27,17.16L178.36,11.44L168.46,17.16L178.36,22.89Z" style="fill:white;fill-rule:nonzero;"/>
            <path d="M158.55,22.89L148.64,17.16L138.73,22.89L148.64,28.61L158.55,22.89Z" style="fill:white;fill-rule:nonzero;"/>
            <path d="M148.64,28.61L138.73,22.89L128.82,28.61L138.73,34.33L148.64,28.61Z" style="fill:white;fill-rule:nonzero;"/>
            <path d="M138.73,34.33L128.82,28.61L118.91,34.33L128.82,40.05L138.73,34.33Z" style="fill:white;fill-rule:nonzero;"/>
            <path d="M29.73,85.82L19.82,91.54L29.73,97.27L39.64,91.54L29.73,85.82Z" style="fill:white;fill-rule:nonzero;"/>
            <path d="M39.64,91.54L29.73,97.27L39.64,102.99L49.55,97.27L39.64,91.54Z" style="fill:white;fill-rule:nonzero;"/>
            <path d="M49.55,97.27L39.64,102.99L49.55,108.71L59.45,102.99L49.55,97.27Z" style="fill:white;fill-rule:nonzero;"/>
            <path d="M69.36,74.38L59.45,68.66L49.55,74.38L59.45,80.1L69.36,74.38Z" style="fill:white;fill-rule:nonzero;"/>
            <path d="M59.45,80.1L49.55,74.38L39.64,80.1L49.55,85.82L59.45,80.1Z" style="fill:white;fill-rule:nonzero;"/>
            <path d="M49.55,85.82L39.64,80.1L29.73,85.82L39.64,91.54L49.55,85.82Z" style="fill:white;fill-rule:nonzero;"/>
            <path d="M59.45,102.99L49.55,108.71L59.45,114.43L69.36,108.71L59.45,102.99Z" style="fill:white;fill-rule:nonzero;"/>
            <path d="M267.55,97.27L277.46,102.99L287.37,97.27L277.46,91.54L267.55,97.27Z" style="fill:white;fill-rule:nonzero;"/>
            <path d="M257.64,102.99L267.55,108.71L277.46,102.99L267.55,97.27L257.64,102.99Z" style="fill:white;fill-rule:nonzero;"/>
            <path d="M247.73,108.71L257.64,114.43L267.55,108.71L257.64,102.99L247.73,108.71Z" style="fill:white;fill-rule:nonzero;"/>
            <path d="M287.37,97.27L297.27,91.54L287.37,85.82L277.46,91.54L287.37,97.27Z" style="fill:white;fill-rule:nonzero;"/>
            <path d="M267.55,85.82L277.46,80.1L267.55,74.38L257.64,80.1L267.55,85.82Z" style="fill:white;fill-rule:nonzero;"/>
            <path d="M257.64,80.1L267.55,74.38L257.64,68.66L247.73,74.38L257.64,80.1Z" style="fill:white;fill-rule:nonzero;"/>
            <path d="M277.46,91.54L287.37,85.82L277.46,80.1L267.55,85.82L277.46,91.54Z" style="fill:white;fill-rule:nonzero;"/>
            <path d="M128.82,143.04L118.91,148.76L128.82,154.48L138.73,148.76L128.82,143.04Z" style="fill:white;fill-rule:nonzero;"/>
            <path d="M138.73,148.76L128.82,154.48L138.73,160.2L148.64,154.48L138.73,148.76Z" style="fill:white;fill-rule:nonzero;"/>
            <path d="M178.36,148.76L188.27,154.48L198.18,148.76L188.27,143.04L178.36,148.76Z" style="fill:white;fill-rule:nonzero;"/>
            <path d="M148.64,165.92L158.55,171.65L168.46,165.92L158.55,160.2L148.64,165.92Z" style="fill:white;fill-rule:nonzero;"/>
            <path d="M148.64,154.48L138.73,160.2L148.64,165.92L158.55,160.2L148.64,154.48Z" style="fill:white;fill-rule:nonzero;"/>
            <path d="M158.55,160.2L168.46,165.92L178.36,160.2L168.46,154.48L158.55,160.2Z" style="fill:white;fill-rule:nonzero;"/>
            <path d="M168.46,154.48L178.36,160.2L188.27,154.48L178.36,148.76L168.46,154.48Z" style="fill:white;fill-rule:nonzero;"/>
        </g>
    </g>
</svg>
