<?xml version="1.0" encoding="UTF-8" standalone="no"?>
<!DOCTYPE svg PUBLIC "-//W3C//DTD SVG 1.1//EN" "http://www.w3.org/Graphics/SVG/1.1/DTD/svg11.dtd">
<svg width="100%" height="100%" viewBox="0 0 550 550" version="1.1" xmlns="http://www.w3.org/2000/svg" xmlns:xlink="http://www.w3.org/1999/xlink" xml:space="preserve" xmlns:serif="http://www.serif.com/" style="fill-rule:evenodd;clip-rule:evenodd;stroke-linecap:round;stroke-linejoin:round;stroke-miterlimit:1.5;">
    <g transform="matrix(1,0,0,1,-725.933,-725.6)">
        <g>
            <path d="M945.757,1017.98L945.757,923.904L999.947,952.516L1037.66,933.441L1096.19,956.851L1057.17,982.429L1057.17,1079.54L999.811,1049.13L936.219,1070.87L961.364,1027.95L945.757,1017.98Z" style="fill:white;"/>
            <g>
                <g transform="matrix(1,0,0,1,-3.11841,0)">
                    <path d="M1111.63,999.918L1111.63,892.821L1141.6,912.52L1278.27,1131.96L1193.26,1131.96L1111.63,999.918Z" style="fill:white;"/>
                </g>
                <g transform="matrix(1,0,0,1,-3.11841,0)">
                    <path d="M1137.29,875.738L1148.83,868.458L1215.06,868.458L1244.18,915.355L1244.18,934.43L1214.7,999.285L1137.29,875.738Z" style="fill:white;stroke:white;stroke-width:1px;"/>
                </g>
            </g>
            <g transform="matrix(6.12323e-17,-1,1,6.12323e-17,0.333111,2000.75)">
                <g transform="matrix(1,0,0,1,-3.11841,0)">
                    <path d="M1111.63,999.918L1111.63,892.821L1141.6,912.52L1278.27,1131.96L1193.26,1131.96L1111.63,999.918Z" style="fill:white;"/>
                </g>
                <g transform="matrix(1,0,0,1,-3.11841,0)">
                    <path d="M1137.29,875.738L1148.83,868.458L1215.06,868.458L1244.18,915.355L1244.18,934.43L1214.7,999.285L1137.29,875.738Z" style="fill:white;stroke:white;stroke-width:1px;"/>
                </g>
            </g>
            <g transform="matrix(-1,-1.22465e-16,1.22465e-16,-1,2001.08,2000.42)">
                <g transform="matrix(1,0,0,1,-3.11841,0)">
                    <path d="M1111.63,999.918L1111.63,892.821L1141.6,912.52L1278.27,1131.96L1193.26,1131.96L1111.63,999.918Z" style="fill:white;"/>
                </g>
                <g transform="matrix(1,0,0,1,-3.11841,0)">
                    <path d="M1137.29,875.738L1148.83,868.458L1215.06,868.458L1244.18,915.355L1244.18,934.43L1214.7,999.285L1137.29,875.738Z" style="fill:white;stroke:white;stroke-width:1px;"/>
                </g>
            </g>
            <g transform="matrix(-1.83697e-16,1,-1,-1.83697e-16,2000.75,-0.333111)">
                <g transform="matrix(1,0,0,1,-3.11841,0)">
                    <path d="M1111.63,999.918L1111.63,892.821L1141.6,912.52L1278.27,1131.96L1193.26,1131.96L1111.63,999.918Z" style="fill:white;"/>
                </g>
                <g transform="matrix(1,0,0,1,-3.11841,0)">
                    <path d="M1137.29,875.738L1148.83,868.458L1215.06,868.458L1244.18,915.355L1244.18,934.43L1214.7,999.285L1137.29,875.738Z" style="fill:white;stroke:white;stroke-width:1px;"/>
                </g>
            </g>
        </g>
    </g>
</svg>
